<svg width="34" height="34" viewBox="0 0 34 34" fill="none" xmlns="http://www.w3.org/2000/svg">
<path d="M5.5 30H1.5V22M28.5 30H32.5C32.5 29.5142 32.5 27.612 32.5 22M24 13.5H25C27.5 13.6667 32.5 15.5 32.5 21.5C32.5 21.6699 32.5 21.8365 32.5 22M24 13.5V20C24 20.6667 24.5 22 26.5 22C28.5 22 31.3333 22 32.5 22M24 13.5H20M20 13.5V20C20 20.8333 19.5 22 17 22H10.75M20 13.5H10.75M1.5 22V13.5H10.75M1.5 22H10.75M10.75 13.5V22" stroke="white" stroke-width="1.2"/>
<path d="M3.5 13.5L1 7.5H5L8 9.5H13.5L9.5 1L14 2L19.5 10H26.5C28.3333 10.1667 31.5 11.4 29.5 15" stroke="white" stroke-width="1.2"/>
<path d="M12.5 30H21.5" stroke="white" stroke-width="1.2"/>
<circle cx="25" cy="29.5" r="3.4" stroke="white" stroke-width="1.2"/>
<circle cx="9" cy="29.5" r="3.4" stroke="white" stroke-width="1.2"/>
</svg>
