<svg width="17" height="18" viewBox="0 0 17 18" fill="none" xmlns="http://www.w3.org/2000/svg">
<g clip-path="url(#clip0_160_63071)">
<path d="M4.5684 7.14696H4.70653C5.23836 7.14696 5.67349 7.58209 5.67349 8.11392V12.9487C5.67349 13.4805 5.23836 13.9157 4.70653 13.9157H4.5684C4.03657 13.9157 3.60144 13.4805 3.60144 12.9487V8.11392C3.60144 7.58209 4.03657 7.14696 4.5684 7.14696ZM8.43622 4.24609C8.96805 4.24609 9.40318 4.68122 9.40318 5.21305V12.9487C9.40318 13.4805 8.96805 13.9157 8.43622 13.9157C7.9044 13.9157 7.46927 13.4805 7.46927 12.9487V5.21305C7.46927 4.68122 7.9044 4.24609 8.43622 4.24609ZM12.304 9.77156C12.8359 9.77156 13.271 10.2067 13.271 10.7385V12.9487C13.271 13.4805 12.8359 13.9157 12.304 13.9157C11.7722 13.9157 11.3371 13.4805 11.3371 12.9487V10.7385C11.3371 10.2067 11.7722 9.77156 12.304 9.77156Z" fill="#E92928"/>
</g>
<defs>
<clipPath id="clip0_160_63071">
<rect width="16.5764" height="16.5764" fill="white" transform="translate(0.147949 0.79248)"/>
</clipPath>
</defs>
</svg>
