<svg width="11" height="10" viewBox="0 0 11 10" fill="none" xmlns="http://www.w3.org/2000/svg">
<path d="M1.5684 3.14696H1.70653C2.23836 3.14696 2.67349 3.58209 2.67349 4.11392V8.9487C2.67349 9.48053 2.23836 9.91566 1.70653 9.91566H1.5684C1.03657 9.91566 0.60144 9.48053 0.60144 8.9487V4.11392C0.60144 3.58209 1.03657 3.14696 1.5684 3.14696ZM5.43622 0.246094C5.96805 0.246094 6.40318 0.681224 6.40318 1.21305V8.9487C6.40318 9.48053 5.96805 9.91566 5.43622 9.91566C4.9044 9.91566 4.46927 9.48053 4.46927 8.9487V1.21305C4.46927 0.681224 4.9044 0.246094 5.43622 0.246094ZM9.30405 5.77156C9.83588 5.77156 10.271 6.20669 10.271 6.73852V8.9487C10.271 9.48053 9.83588 9.91566 9.30405 9.91566C8.77222 9.91566 8.33709 9.48053 8.33709 8.9487V6.73852C8.33709 6.20669 8.77222 5.77156 9.30405 5.77156Z" fill="#E92928"/>
</svg>
