<svg width="14" height="14" viewBox="0 0 14 14" fill="none" xmlns="http://www.w3.org/2000/svg">
<g clip-path="url(#clip0_160_63082)">
<path d="M11.0597 2.41835H10.5417V1.90034C10.5417 1.61543 10.3086 1.38232 10.0237 1.38232C9.73877 1.38232 9.50566 1.61543 9.50566 1.90034V2.41835H4.32554V1.90034C4.32554 1.61543 4.09243 1.38232 3.80752 1.38232C3.52262 1.38232 3.28951 1.61543 3.28951 1.90034V2.41835H2.7715C2.20168 2.41835 1.73547 2.88456 1.73547 3.45437V11.7426C1.73547 12.3124 2.20168 12.7786 2.7715 12.7786H11.0597C11.6295 12.7786 12.0957 12.3124 12.0957 11.7426V3.45437C12.0957 2.88456 11.6295 2.41835 11.0597 2.41835ZM10.5417 11.7426H3.28951C3.0046 11.7426 2.7715 11.5095 2.7715 11.2246V5.00841H11.0597V11.2246C11.0597 11.5095 10.8266 11.7426 10.5417 11.7426Z" fill="#A3AED0"/>
</g>
<defs>
<clipPath id="clip0_160_63082">
<rect width="12.4323" height="12.4323" fill="white" transform="translate(0.699524 0.864258)"/>
</clipPath>
</defs>
</svg>
