<svg width="75" height="19" viewBox="0 0 75 19" fill="none" xmlns="http://www.w3.org/2000/svg">
<path d="M1.5 18.5C3 14 6.81218 6.00003 10.5 6.00003C13.3314 6.00003 14.3813 10.0084 18.6939 13.8218C19.2042 14.273 19.8711 14.5 20.5523 14.5H26.2518C27.3322 14.5 28.3292 13.919 28.8619 12.979L33.4047 4.96233C34.648 2.76825 37.8793 2.99415 38.8052 5.33987L42.221 13.9931C43.039 16.0655 45.7509 16.5546 47.2413 14.8985L51.5996 10.056C52.4409 9.12121 53.776 8.81039 54.9437 9.27746L61.1633 11.7653C62.2775 12.211 63.5502 11.9498 64.3988 11.1012L74 1.5" stroke="white" stroke-width="2"/>
</svg>
