<svg width="23" height="23" viewBox="0 0 23 23" fill="none" xmlns="http://www.w3.org/2000/svg">
<rect width="22.7925" height="22.7925" rx="6.90683" fill="#F4F7FE"/>
<g clip-path="url(#clip0_160_63336)">
<path d="M7.87382 9.8081H8.01195C8.54378 9.8081 8.97891 10.2432 8.97891 10.7751V15.6098C8.97891 16.1417 8.54378 16.5768 8.01195 16.5768H7.87382C7.34199 16.5768 6.90686 16.1417 6.90686 15.6098V10.7751C6.90686 10.2432 7.34199 9.8081 7.87382 9.8081ZM11.7416 6.90723C12.2735 6.90723 12.7086 7.34236 12.7086 7.87418V15.6098C12.7086 16.1417 12.2735 16.5768 11.7416 16.5768C11.2098 16.5768 10.7747 16.1417 10.7747 15.6098V7.87418C10.7747 7.34236 11.2098 6.90723 11.7416 6.90723ZM15.6095 12.4327C16.1413 12.4327 16.5764 12.8678 16.5764 13.3996V15.6098C16.5764 16.1417 16.1413 16.5768 15.6095 16.5768C15.0776 16.5768 14.6425 16.1417 14.6425 15.6098V13.3996C14.6425 12.8678 15.0776 12.4327 15.6095 12.4327Z" fill="#E92928"/>
</g>
<defs>
<clipPath id="clip0_160_63336">
<rect width="16.5764" height="16.5764" fill="white" transform="translate(3.4534 3.45361)"/>
</clipPath>
</defs>
</svg>
