<svg width="8" height="10" viewBox="0 0 8 10" fill="none" xmlns="http://www.w3.org/2000/svg">
<path d="M3.74636 0C2.75313 0.00114359 1.80091 0.38673 1.09858 1.07218C0.396256 1.75762 0.00117573 2.68696 3.98574e-06 3.65633C-0.00118562 4.4485 0.263945 5.21917 0.754725 5.85013C0.754725 5.85013 0.856898 5.98142 0.873586 6.00037L3.74636 9.30702L6.6205 5.99871C6.63548 5.98109 6.738 5.85013 6.738 5.85013L6.73834 5.84913C7.22887 5.21845 7.49388 4.44813 7.49272 3.65633C7.49155 2.68696 7.09647 1.75762 6.39414 1.07218C5.69182 0.38673 4.7396 0.00114359 3.74636 0ZM4.97244 5.3183L3.74636 4.55678L2.52028 5.3183L2.72463 3.96413L1.70289 3.04905L3.13332 2.88052L3.74636 1.66197L4.39755 2.88086L5.78983 3.04905L4.7681 3.96413L4.97244 5.3183Z" fill="#E52A24"/>
</svg>
