<svg width="23" height="23" viewBox="0 0 23 23" fill="none" xmlns="http://www.w3.org/2000/svg">
<rect width="22.7925" height="22.7925" rx="6.90683" fill="#F4F7FE"/>
<g clip-path="url(#clip0_358_1886)">
<path d="M7.87382 9.80712H8.01195C8.54378 9.80712 8.97891 10.2423 8.97891 10.7741V15.6089C8.97891 16.1407 8.54378 16.5758 8.01195 16.5758H7.87382C7.34199 16.5758 6.90686 16.1407 6.90686 15.6089V10.7741C6.90686 10.2423 7.34199 9.80712 7.87382 9.80712ZM11.7416 6.90625C12.2735 6.90625 12.7086 7.34138 12.7086 7.87321V15.6089C12.7086 16.1407 12.2735 16.5758 11.7416 16.5758C11.2098 16.5758 10.7747 16.1407 10.7747 15.6089V7.87321C10.7747 7.34138 11.2098 6.90625 11.7416 6.90625ZM15.6095 12.4317C16.1413 12.4317 16.5764 12.8668 16.5764 13.3987V15.6089C16.5764 16.1407 16.1413 16.5758 15.6095 16.5758C15.0776 16.5758 14.6425 16.1407 14.6425 15.6089V13.3987C14.6425 12.8668 15.0776 12.4317 15.6095 12.4317Z" fill="#B7B7B7"/>
</g>
<defs>
<clipPath id="clip0_358_1886">
<rect width="16.5764" height="16.5764" fill="white" transform="translate(3.4534 3.45312)"/>
</clipPath>
</defs>
</svg>
